#!OML:ASF \\sashay\E\basketball\basketball\Project 1\Capture day 1\Session 1\Subject.ASF
:FULLY-SPECIFIED
:DEGREES
550
root 12.4543 14.9803 -3.74975 -174.581 -11.619 -172.089
lowerback 32.7292 1.41815 3.96832
upperback 10.1739 0.535327 2.9436
thorax -6.16423 -0.889944 0.944256
lowerneck -8.1614 -3.49849 -16.7305
upperneck -26.7018 -3.99412 24.756
head -5.42599 -4.01674 11.8025
rclavicle -1.18277e-014 1.04362e-014
rhumerus -18.6898 -13.961 -49.8197
rradius 57.9175
rwrist -22.4647
rhand -40.0504 58.1943
rfingers 7.12502
rthumb -13.0164 28.6204
lclavicle -1.18277e-014 1.04362e-014
lhumerus -42.19 -4.83457 47.1433
lradius 97.4823
lwrist 20.9637
lhand -36.9535 7.79134
lfingers 7.12502
lthumb -10.0297 37.5324
rfemur -41.7351 -31.744 22.9306
rtibia 74.5986
rfoot -8.02009 -10.4996
rtoes -40.7606
lfemur -53.2349 29.4157 -35.8611
ltibia 74.5762
lfoot 6.26591 -13.8516
ltoes -8.03213
551
root 12.1781 15.0017 -3.73473 -174.315 -11.5112 -172.849
lowerback 32.5757 1.31821 3.78685
upperback 10.2209 0.326313 2.50477
thorax -6.04729 -0.971456 0.625227
lowerneck -8.46485 -3.62504 -16.0074
upperneck -26.5815 -4.25672 24.2208
head -5.33185 -4.15985 11.4105
rclavicle 1.49089e-014 -3.97569e-015
rhumerus -19.0065 -14.2404 -49.1613
rradius 59.213
rwrist -23.1671
rhand -40.2848 58.2201
rfingers 7.12502
rthumb -13.2423 28.6607
lclavicle 1.49089e-014 -3.97569e-015
lhumerus -42.382 -4.33533 48.6521
lradius 97.1323
lwrist 21.3933
lhand -37.3549 7.95745
lfingers 7.12502
lthumb -10.417 37.6794
rfemur -42.905 -32.1894 23.7546
rtibia 76.4379
rfoot -7.5126 -9.93989
rtoes -45.243
lfemur -53.5352 29.0367 -36.1526
ltibia 74.8262
lfoot 3.3306 -9.6217
ltoes -7.77033
552
root 11.9059 15.0181 -3.71074 -174.044 -11.4385 -173.942
lowerback 32.6016 1.2824 3.19513
upperback 10.2398 0.0819218 2.11297
thorax -6.05647 -1.07764 0.613622
lowerneck -8.95511 -3.75435 -16.5015
upperneck -26.1823 -4.37462 24.0392
head -5.09679 -4.10106 11.3673
rclavicle 5.76476e-015 -3.37934e-014
rhumerus -19.1834 -14.6203 -48.3682
rradius 60.3795
rwrist -23.4088
rhand -40.6173 58.2274
rfingers 7.12502
rthumb -13.5628 28.6892
lclavicle 5.76476e-015 -3.37934e-014
lhumerus -42.5359 -3.74068 50.3981
lradius 96.6526
lwrist 21.2148
lhand -37.4433 8.07215
lfingers 7.12502
lthumb -10.5023 37.7898
rfemur -43.8341 -32.4865 23.8895
rtibia 78.0502
rfoot -7.78048 -8.58665
rtoes -46.8141
lfemur -53.7457 28.4817 -36.4628
ltibia 75.0089
lfoot 0.96627 -6.22503
ltoes -7.7514
553
root 11.6379 15.0205 -3.68327 -173.823 -11.1999 -175.204
lowerback 32.7913 1.3339 2.2143
upperback 10.2454 -0.183989 1.68297
thorax -6.15965 -1.20259 0.797059
lowerneck -9.06295 -3.71745 -16.2022
upperneck -26.5483 -4.40577 24.0156
head -5.20077 -4.19821 11.3345
rclavicle 7.7526e-015 -1.51076e-014
rhumerus -19.1901 -15.0074 -47.7739
rradius 61.4544
rwrist -23.3135
rhand -40.7552 58.5146
rfingers 7.12502
rthumb -13.6957 28.9853
lclavicle 7.7526e-015 -1.51076e-014
lhumerus -42.8576 -2.9409 52.1688
lradius 96.1172
lwrist 20.4957
lhand -37.8616 8.61527
lfingers 7.12502
lthumb -10.9057 38.3121
rfemur -44.557 -32.6954 23.6333
rtibia 79.4154
rfoot -8.26178 -7.08028
rtoes -47.8919
lfemur -53.9135 27.9432 -36.5846
ltibia 75.1287
lfoot -1.02222 -3.8062
ltoes -9.67964
554
root 11.3703 15.0192 -3.65951 -173.791 -10.8349 -176.111
lowerback 33.4248 1.33862 1.4935
upperback 9.8173 -0.435541 1.23505
thorax -6.25051 -1.33106 0.770875
lowerneck -9.01989 -3.4368 -15.4077
upperneck -26.8433 -4.16526 23.6621
head -5.40175 -4.18016 11.0982
rclavicle -2.0276e-014 0
rhumerus -19.2299 -15.2698 -47.3982
rradius 62.5753
rwrist -23.2612
rhand -40.8359 58.6996
rfingers 7.12502
rthumb -13.7735 29.1755
lclavicle -2.0276e-014 0
lhumerus -43.2662 -2.00861 53.7432
lradius 95.5574
lwrist 19.6737
lhand -38.2305 8.82457
lfingers 7.12502
lthumb -11.2616 38.5023
rfemur -44.8923 -32.7109 23.6018
rtibia 80.3762
rfoot -8.38476 -6.35851
rtoes -50.994
lfemur -53.9882 27.6228 -35.9974
ltibia 75.2528
lfoot -2.70388 -2.18435
ltoes -10.8711
555
root 11.1039 15.0109 -3.64242 -173.913 -10.4968 -176.729
lowerback 33.7776 1.38074 0.951184
upperback 9.769 -0.594771 0.967827
thorax -6.44165 -1.41219 0.842264
lowerneck -8.60639 -3.253 -15.9574
upperneck -27.3618 -3.89483 24.121
head -5.65572 -4.09864 11.4731
rclavicle 2.5842e-015 -1.53064e-014
rhumerus -19.3243 -15.4923 -46.6964
rradius 63.7383
rwrist -23.3068
rhand -40.8113 58.7932
rfingers 7.12502
rthumb -13.7497 29.2675
lclavicle 2.5842e-015 -1.53064e-014
lhumerus -43.596 -0.87485 55.624
lradius 95.0068
lwrist 19.0732
lhand -37.5028 8.10905
lfingers 7.12502
lthumb -10.5596 37.8238
rfemur -44.8978 -32.6878 23.7577
rtibia 81.0197
rfoot -8.18101 -6.74004
rtoes -54.7174
lfemur -53.9796 27.4913 -34.8777
ltibia 75.381
lfoot -4.27301 -1.18896
ltoes -11.1868
556
root 10.8408 14.9814 -3.62402 -174.061 -10.2232 -177.219
lowerback 34.1606 1.4301 0.532327
upperback 9.76715 -0.725523 0.731004
thorax -6.58919 -1.48592 0.870269
lowerneck -8.84229 -3.29986 -16.6091
upperneck -27.5416 -3.89339 24.7444
head -5.61921 -4.11804 11.8578
rclavicle 1.17283e-014 -2.26615e-014
rhumerus -19.3585 -15.9602 -46.0036
rradius 64.8539
rwrist -23.3416
rhand -40.6544 59.1682
rfingers 7.12502
rthumb -13.5985 29.6323
lclavicle 1.17283e-014 -2.26615e-014
lhumerus -43.633 0.267716 57.4614
lradius 94.426
lwrist 18.7528
lhand -36.6734 7.633
lfingers 7.12502
lthumb -9.75955 37.3869
rfemur -44.5528 -32.289 23.4854
rtibia 81.2515
rfoot -9.131 -5.863
rtoes -54.9643
lfemur -54.0614 27.3302 -33.4595
ltibia 75.4709
lfoot -5.68224 -0.386585
ltoes -9.89784
